HIERARCHY
ROOT newVegas:Hips
{
	OFFSET 0.000000 96.479958 0.000000
	CHANNELS 6 Xposition Yposition Zposition Xrotation Yrotation Zrotation
	JOINT newVegas:Pelvis
	{
		OFFSET 0.000000 0.000000 0.000000
		CHANNELS 3 Xrotation Yrotation Zrotation
		JOINT newVegas:LeftUpLeg
		{
			OFFSET 18.735201 -5.666702 -4.541200
			CHANNELS 3 Xrotation Yrotation Zrotation
			JOINT newVegas:LeftLeg
			{
				OFFSET -0.021200 -31.938179 0.493100
				CHANNELS 3 Xrotation Yrotation Zrotation
				JOINT newVegas:LeftFoot
				{
					OFFSET 0.021200 -31.938179 -4.336299
					CHANNELS 3 Xrotation Yrotation Zrotation
					JOINT newVegas:LeftToeBase
					{
						OFFSET 0.943001 -26.722000 15.023500
						CHANNELS 3 Xrotation Yrotation Zrotation
						End Site
						{
							OFFSET 0.000000 30.670183 0.000000
						}
					}
				}
				JOINT newVegas:Left_PantLeg
				{
					OFFSET 0.663870 -9.044666 -1.108900
					CHANNELS 3 Xrotation Yrotation Zrotation
					End Site
					{
						OFFSET 1.415995 20.635357 0.000000
					}
				}
			}
		}
		JOINT newVegas:RightUpLeg
		{
			OFFSET -18.735201 -5.666702 -4.541200
			CHANNELS 3 Xrotation Yrotation Zrotation
			JOINT newVegas:RightLeg
			{
				OFFSET 0.018946 -31.938133 0.493100
				CHANNELS 3 Xrotation Yrotation Zrotation
				JOINT newVegas:RightFoot
				{
					OFFSET -0.018946 -31.938126 -4.336299
					CHANNELS 3 Xrotation Yrotation Zrotation
					JOINT newVegas:RightToeBase
					{
						OFFSET -0.943001 -26.722004 15.023500
						CHANNELS 3 Xrotation Yrotation Zrotation
						End Site
						{
							OFFSET 0.000000 30.670187 0.000000
						}
					}
				}
				JOINT newVegas:Right_PantLeg
				{
					OFFSET -0.661674 -9.044716 -1.108900
					CHANNELS 3 Xrotation Yrotation Zrotation
					End Site
					{
						OFFSET -1.415958 20.635269 0.000000
					}
				}
			}
		}
	}
	JOINT newVegas:Spine
	{
		OFFSET 0.000000 10.199997 -0.299500
		CHANNELS 3 Xrotation Yrotation Zrotation
		JOINT newVegas:Spine1
		{
			OFFSET 0.000000 11.900002 -1.516600
			CHANNELS 3 Xrotation Yrotation Zrotation
			JOINT newVegas:Spine2
			{
				OFFSET 0.000000 13.600006 -2.842500
				CHANNELS 3 Xrotation Yrotation Zrotation
				JOINT newVegas:Neck
				{
					OFFSET 0.000000 9.624100 -2.890100
					CHANNELS 3 Xrotation Yrotation Zrotation
					JOINT newVegas:Head
					{
						OFFSET 0.000000 14.068802 -1.351900
						CHANNELS 3 Xrotation Yrotation Zrotation
						JOINT newVegas:Hair_Back
						{
							OFFSET 0.000000 3.231903 -17.524799
							CHANNELS 3 Xrotation Yrotation Zrotation
							End Site
							{
								OFFSET 0.000000 19.849884 0.000000
							}
						}
						JOINT newVegas:Hair_Front
						{
							OFFSET 0.000000 31.260406 4.573800
							CHANNELS 3 Xrotation Yrotation Zrotation
							JOINT newVegas:Hair_Front1
							{
								OFFSET 0.000000 2.284103 11.993300
								CHANNELS 3 Xrotation Yrotation Zrotation
								JOINT newVegas:Hair_Front2
								{
									OFFSET 0.000000 2.284103 11.993300
									CHANNELS 3 Xrotation Yrotation Zrotation
									End Site
									{
										OFFSET 0.000000 12.208862 0.000000
									}
								}
							}
						}
						JOINT newVegas:Jowel
						{
							OFFSET 0.000000 -7.458206 6.864100
							CHANNELS 3 Xrotation Yrotation Zrotation
							End Site
							{
								OFFSET 0.000000 19.849884 0.000000
							}
						}
					}
				}
				JOINT newVegas:LeftShoulder
				{
					OFFSET 15.263000 10.923401 -0.547700
					CHANNELS 3 Xrotation Yrotation Zrotation
					JOINT newVegas:LeftArm
					{
						OFFSET 25.438599 -2.830597 -13.032500
						CHANNELS 3 Xrotation Yrotation Zrotation
						JOINT newVegas:LeftForeArm
						{
							OFFSET 29.960503 0.000000 0.000000
							CHANNELS 3 Xrotation Yrotation Zrotation
							JOINT newVegas:LeftHand
							{
								OFFSET 27.849251 0.000000 0.000000
								CHANNELS 3 Xrotation Yrotation Zrotation
								JOINT newVegas:LeftHandThumb1
								{
									OFFSET 4.487587 -3.305161 6.305391
									CHANNELS 3 Xrotation Yrotation Zrotation
									JOINT newVegas:LeftHandThumb2
									{
										OFFSET 5.480453 -3.164139 3.164143
										CHANNELS 3 Xrotation Yrotation Zrotation
										JOINT newVegas:LeftHandThumb3
										{
											OFFSET 5.159721 -2.978973 2.978967
											CHANNELS 3 Xrotation Yrotation Zrotation
											End Site
											{
												OFFSET 2.494507 5.926697 1.738678
											}
										}
									}
								}
								JOINT newVegas:LeftHandIndex1
								{
									OFFSET 18.578728 -0.527832 5.208049
									CHANNELS 3 Xrotation Yrotation Zrotation
									JOINT newVegas:LeftHandIndex2
									{
										OFFSET 3.192009 0.000000 0.000000
										CHANNELS 3 Xrotation Yrotation Zrotation
										JOINT newVegas:LeftHandIndex3
										{
											OFFSET 3.835129 0.000000 0.000000
											CHANNELS 3 Xrotation Yrotation Zrotation
											End Site
											{
												OFFSET -0.034599 3.816971 0.371180
											}
										}
									}
								}
								JOINT newVegas:LeftHandMiddle1
								{
									OFFSET 18.476105 0.000000 0.000000
									CHANNELS 3 Xrotation Yrotation Zrotation
									JOINT newVegas:LeftHandMiddle2
									{
										OFFSET 3.324875 0.000000 0.000000
										CHANNELS 3 Xrotation Yrotation Zrotation
										JOINT newVegas:LeftHandMiddle3
										{
											OFFSET 4.596550 0.000000 0.000000
											CHANNELS 3 Xrotation Yrotation Zrotation
											End Site
											{
												OFFSET 0.057701 4.578827 0.399218
											}
										}
									}
								}
								JOINT newVegas:LeftHandRing1
								{
									OFFSET 17.732719 0.121887 -4.201567
									CHANNELS 3 Xrotation Yrotation Zrotation
									JOINT newVegas:LeftHandRing2
									{
										OFFSET 2.733170 0.000000 0.000000
										CHANNELS 3 Xrotation Yrotation Zrotation
										JOINT newVegas:LeftHandRing3
										{
											OFFSET 3.178268 0.000000 0.000000
											CHANNELS 3 Xrotation Yrotation Zrotation
											End Site
											{
												OFFSET 0.119102 3.170624 0.185394
											}
										}
									}
								}
								JOINT newVegas:LeftHandPinky1
								{
									OFFSET 15.989624 -0.606689 -7.535461
									CHANNELS 3 Xrotation Yrotation Zrotation
									JOINT newVegas:LeftHandPinky2
									{
										OFFSET 2.538986 0.000000 0.000000
										CHANNELS 3 Xrotation Yrotation Zrotation
										JOINT newVegas:LeftHandPinky3
										{
											OFFSET 2.593102 0.000000 0.000000
											CHANNELS 3 Xrotation Yrotation Zrotation
											End Site
											{
												OFFSET -0.150902 2.584198 0.152708
											}
										}
									}
								}
							}
							JOINT newVegas:Left_Sleeve
							{
								OFFSET 0.267448 -0.649796 0.577675
								CHANNELS 3 Xrotation Yrotation Zrotation
								End Site
								{
									OFFSET 0.000000 15.991241 0.000000
								}
							}
							JOINT newVegas:Left_CapeC
							{
								OFFSET 15.715958 -8.608795 -6.935905
								CHANNELS 3 Xrotation Yrotation Zrotation
								JOINT newVegas:Left_CapeC1
								{
									OFFSET 0.000000 -8.688499 0.000000
									CHANNELS 3 Xrotation Yrotation Zrotation
									End Site
									{
										OFFSET 0.000000 8.688499 0.000000
									}
								}
							}
						}
						JOINT newVegas:Left_CapeB
						{
							OFFSET 26.118385 -8.608795 -7.079235
							CHANNELS 3 Xrotation Yrotation Zrotation
							JOINT newVegas:Left_CapeB1
							{
								OFFSET 0.000000 -8.688499 0.000000
								CHANNELS 3 Xrotation Yrotation Zrotation
								End Site
								{
									OFFSET 0.000000 8.688499 0.000000
								}
							}
						}
						JOINT newVegas:Left_CapeA
						{
							OFFSET 5.115639 -8.608795 -10.395809
							CHANNELS 3 Xrotation Yrotation Zrotation
							JOINT newVegas:Left_CapeA1
							{
								OFFSET 0.000000 -8.688499 0.000000
								CHANNELS 3 Xrotation Yrotation Zrotation
								End Site
								{
									OFFSET 0.000000 8.688499 0.000000
								}
							}
						}
					}
				}
				JOINT newVegas:RightShoulder
				{
					OFFSET -15.263000 10.923401 -0.547700
					CHANNELS 3 Xrotation Yrotation Zrotation
					JOINT newVegas:RightArm
					{
						OFFSET -25.438599 -2.830597 -13.032500
						CHANNELS 3 Xrotation Yrotation Zrotation
						JOINT newVegas:RightForeArm
						{
							OFFSET -29.960503 0.000000 0.000000
							CHANNELS 3 Xrotation Yrotation Zrotation
							JOINT newVegas:RightHand
							{
								OFFSET -27.849251 0.000000 0.000000
								CHANNELS 3 Xrotation Yrotation Zrotation
								JOINT newVegas:RightHandThumb1
								{
									OFFSET -4.487587 -3.305161 6.305391
									CHANNELS 3 Xrotation Yrotation Zrotation
									JOINT newVegas:RightHandThumb2
									{
										OFFSET -5.480453 -3.164139 3.164143
										CHANNELS 3 Xrotation Yrotation Zrotation
										JOINT newVegas:RightHandThumb3
										{
											OFFSET -5.159721 -2.978973 2.978967
											CHANNELS 3 Xrotation Yrotation Zrotation
											End Site
											{
												OFFSET -2.494507 5.926697 1.738678
											}
										}
									}
								}
								JOINT newVegas:RightHandIndex1
								{
									OFFSET -18.578728 -0.527832 5.208049
									CHANNELS 3 Xrotation Yrotation Zrotation
									JOINT newVegas:RightHandIndex2
									{
										OFFSET -3.192009 0.000000 0.000000
										CHANNELS 3 Xrotation Yrotation Zrotation
										JOINT newVegas:RightHandIndex3
										{
											OFFSET -3.835129 0.000000 0.000000
											CHANNELS 3 Xrotation Yrotation Zrotation
											End Site
											{
												OFFSET 0.034599 3.816971 0.371180
											}
										}
									}
								}
								JOINT newVegas:RightHandMiddle1
								{
									OFFSET -18.476105 0.000000 0.000000
									CHANNELS 3 Xrotation Yrotation Zrotation
									JOINT newVegas:RightHandMiddle2
									{
										OFFSET -3.324875 0.000000 0.000000
										CHANNELS 3 Xrotation Yrotation Zrotation
										JOINT newVegas:RightHandMiddle3
										{
											OFFSET -4.596550 0.000000 0.000000
											CHANNELS 3 Xrotation Yrotation Zrotation
											End Site
											{
												OFFSET -0.057701 4.578827 0.399218
											}
										}
									}
								}
								JOINT newVegas:RightHandRing1
								{
									OFFSET -17.732719 0.121887 -4.201567
									CHANNELS 3 Xrotation Yrotation Zrotation
									JOINT newVegas:RightHandRing2
									{
										OFFSET -2.733170 0.000000 0.000000
										CHANNELS 3 Xrotation Yrotation Zrotation
										JOINT newVegas:RightHandRing3
										{
											OFFSET -3.178268 0.000000 0.000000
											CHANNELS 3 Xrotation Yrotation Zrotation
											End Site
											{
												OFFSET -0.119102 3.170624 0.185394
											}
										}
									}
								}
								JOINT newVegas:RightHandPinky1
								{
									OFFSET -15.989624 -0.606689 -7.535461
									CHANNELS 3 Xrotation Yrotation Zrotation
									JOINT newVegas:RightHandPinky2
									{
										OFFSET -2.538986 0.000000 0.000000
										CHANNELS 3 Xrotation Yrotation Zrotation
										JOINT newVegas:RightHandPinky3
										{
											OFFSET -2.593102 0.000000 0.000000
											CHANNELS 3 Xrotation Yrotation Zrotation
											End Site
											{
												OFFSET 0.150902 2.584198 0.152708
											}
										}
									}
								}
							}
							JOINT newVegas:Right_CapeC
							{
								OFFSET -15.715958 -8.608795 -6.935905
								CHANNELS 3 Xrotation Yrotation Zrotation
								JOINT newVegas:Right_CapeC1
								{
									OFFSET 0.000000 -8.688499 0.000000
									CHANNELS 3 Xrotation Yrotation Zrotation
									End Site
									{
										OFFSET 0.000000 8.688499 0.000000
									}
								}
							}
							JOINT newVegas:Right_Sleeve
							{
								OFFSET -0.267448 -0.649994 0.577675
								CHANNELS 3 Xrotation Yrotation Zrotation
								End Site
								{
									OFFSET 0.000000 15.991302 0.000000
								}
							}
						}
						JOINT newVegas:Right_CapeA
						{
							OFFSET -5.115540 -8.608795 -10.395824
							CHANNELS 3 Xrotation Yrotation Zrotation
							JOINT newVegas:Right_CapeA1
							{
								OFFSET 0.000000 -8.688499 0.000000
								CHANNELS 3 Xrotation Yrotation Zrotation
								End Site
								{
									OFFSET 0.000000 8.688499 0.000000
								}
							}
						}
						JOINT newVegas:Right_CapeB
						{
							OFFSET -26.118187 -8.608795 -7.079266
							CHANNELS 3 Xrotation Yrotation Zrotation
							JOINT newVegas:Right_CapeB1
							{
								OFFSET 0.000000 -8.688499 0.000000
								CHANNELS 3 Xrotation Yrotation Zrotation
								End Site
								{
									OFFSET 0.000000 8.688499 0.000000
								}
							}
						}
					}
				}
				JOINT newVegas:Left_Collar
				{
					OFFSET 18.625099 8.655502 8.828100
					CHANNELS 3 Xrotation Yrotation Zrotation
					JOINT newVegas:Left_Collar1
					{
						OFFSET 14.783401 10.540405 -1.259500
						CHANNELS 3 Xrotation Yrotation Zrotation
						End Site
						{
							OFFSET 0.000000 18.199875 0.000000
						}
					}
				}
				JOINT newVegas:Collar_Back
				{
					OFFSET 0.000000 15.630707 -20.132601
					CHANNELS 3 Xrotation Yrotation Zrotation
					End Site
					{
						OFFSET 0.000000 22.523010 0.000000
					}
				}
				JOINT newVegas:Left_Peck
				{
					OFFSET 17.239599 -5.132599 25.482599
					CHANNELS 3 Xrotation Yrotation Zrotation
					End Site
					{
						OFFSET 0.000000 22.523010 0.000000
					}
				}
				JOINT newVegas:Right_Peck
				{
					OFFSET -17.239599 -5.132202 25.482599
					CHANNELS 3 Xrotation Yrotation Zrotation
					End Site
					{
						OFFSET 0.000000 22.523010 0.000000
					}
				}
				JOINT newVegas:Right_Collar
				{
					OFFSET -18.625099 8.655792 8.828100
					CHANNELS 3 Xrotation Yrotation Zrotation
					JOINT newVegas:Right_Collar1
					{
						OFFSET -14.783401 10.539993 -1.259500
						CHANNELS 3 Xrotation Yrotation Zrotation
						End Site
						{
							OFFSET 0.000000 18.199631 0.000000
						}
					}
				}
			}
		}
		JOINT newVegas:Belly
		{
			OFFSET 0.000000 -6.540398 9.014299
			CHANNELS 3 Xrotation Yrotation Zrotation
			End Site
			{
				OFFSET 0.000000 11.566666 0.000000
			}
		}
	}
	JOINT newVegas:ElvisFacialAnim_Joint
	{
		OFFSET 1.000000 -95.330101 -8.825800
		CHANNELS 3 Xrotation Yrotation Zrotation
		End Site
		{
			OFFSET 0.000000 35.315800 0.000000
		}
	}
}
MOTION
Frames: 4
Frame Time: 0.016667
0.400893 94.043015 4.601070 1.940295 1.893692 0.093467 -0.000000 -0.000000 -0.000000 -37.077470 8.283632 6.215629 56.307157 -4.714737 -0.546240 9.357828 -0.002433 -2.609205 0.000001 0.000000 0.000000 -0.000000 0.000000 -0.000000 -16.196329 -7.450304 1.568261 24.617621 2.525542 -4.389727 -11.110219 -0.024911 0.355879 -0.000000 0.000000 0.000000 -0.000000 -0.000000 -0.000000 6.168639 -1.264078 -0.212083 2.498167 -2.419468 1.232352 2.471487 -2.375263 1.342052 -0.096056 0.425695 -0.049426 -0.096058 0.425695 -0.049427 -0.000000 0.000001 -0.000000 -0.096055 0.425695 -0.049426 -0.095985 0.425695 -0.049426 -0.000000 0.000000 -0.000000 -0.000000 0.000001 -0.000000 0.352375 -9.169218 -14.380738 9.011958 -24.442281 -57.554603 -0.000003 -11.061376 0.000005 3.271985 3.566771 -10.594337 5.264579 3.579080 10.848970 6.474982 8.367019 6.368036 0.000001 0.000001 -0.000003 -2.233895 -4.155359 -17.702583 0.202682 1.529125 -15.099450 0.000001 -0.000000 0.000000 0.434923 4.486718 -26.650211 0.126206 1.210698 -11.901605 -0.000001 -0.000002 0.000001 1.633484 6.797644 -27.448951 0.330723 1.942283 -19.324997 0.000001 0.000001 -0.000000 3.038389 8.521953 -34.072713 0.278522 1.786563 -17.720738 -0.000001 -0.000003 0.000001 -0.000000 0.000000 -0.000000 -0.000000 0.000000 -0.000000 -0.000001 0.000000 -0.000000 -0.000001 0.000000 0.000001 -0.000001 0.000001 0.000001 -0.000001 0.000000 0.000001 -0.000002 0.000001 0.000001 0.552467 4.135211 15.717227 3.061869 28.096200 49.279866 -0.000002 23.795809 0.000007 -1.370128 0.937416 5.904100 12.604615 -3.092103 -3.819380 4.958719 -19.016360 -8.084343 0.000001 -0.000001 -0.000002 -2.604808 4.000965 20.793322 0.395179 -1.879138 23.750082 0.000004 -0.000003 -0.000001 -1.114232 -0.327540 22.216068 0.858163 -2.695794 35.310094 0.000001 -0.000001 -0.000001 -0.268994 -2.585340 24.354298 1.505985 -3.430894 47.387429 0.000000 0.000002 -0.000001 -0.053540 -3.321032 29.341823 0.569530 -2.233587 28.606371 -0.000002 0.000002 -0.000001 -0.000003 -0.000000 -0.000000 -0.000003 -0.000001 0.000000 -0.000003 -0.000001 0.000001 -0.000001 -0.000001 -0.000002 -0.000001 -0.000001 -0.000000 -0.000001 -0.000001 -0.000002 -0.000001 -0.000001 -0.000000 0.000000 0.000000 -0.000000 0.000000 0.000000 -0.000000 0.000000 0.000000 -0.000000 0.000000 0.000000 -0.000000 0.000000 0.000000 -0.000000 0.000000 0.000000 -0.000000 0.000000 0.000000 -0.000000 0.000000 -0.000000 0.000000 -0.000000 -0.000000 -0.000000 
0.402980 94.042747 4.603429 1.939974 1.894103 0.093797 -0.000000 0.000000 -0.000000 -37.077153 8.281475 6.218255 56.306222 -4.713061 -0.545927 9.354763 -0.001265 -2.611100 -0.000003 0.000000 0.000001 -0.000002 0.000000 -0.000000 -16.195582 -7.449939 1.566018 24.620511 2.524914 -4.389766 -11.114191 -0.023897 0.357834 -0.000000 0.000000 0.000000 0.000001 0.000000 -0.000000 6.169090 -1.262555 -0.212222 2.498234 -2.417830 1.232011 2.471639 -2.373642 1.341658 -0.096385 0.427456 -0.049424 -0.096369 0.427454 -0.049423 -0.000001 0.000001 -0.000000 -0.096246 0.427457 -0.049425 -0.096457 0.427458 -0.049424 0.000001 0.000000 -0.000000 -0.000001 0.000001 -0.000000 0.352425 -9.170001 -14.382085 9.010354 -24.438419 -57.554384 -0.000005 -11.063230 -0.000018 3.257413 3.554002 -10.593113 5.263828 3.578394 10.848687 6.474943 8.367289 6.367674 0.000001 0.000001 -0.000003 -2.233614 -4.154916 -17.701595 0.202654 1.529030 -15.098400 0.000002 -0.000003 -0.000000 0.434873 4.486583 -26.648613 0.126187 1.210630 -11.900792 0.000000 0.000000 0.000001 1.633283 6.797397 -27.447286 0.330688 1.942161 -19.323691 -0.000002 -0.000001 -0.000001 3.037998 8.521608 -34.070578 0.278483 1.786450 -17.719524 -0.000001 -0.000003 -0.000002 -0.000001 0.000001 0.000000 -0.000001 0.000001 0.000000 -0.000002 0.000001 0.000000 -0.000002 -0.000001 0.000001 -0.000001 0.000000 0.000000 -0.000002 -0.000001 0.000001 -0.000003 -0.000000 0.000000 0.551999 4.136469 15.717546 3.065235 28.095293 49.277916 -0.000001 23.806303 -0.000006 -1.366985 0.936650 5.900785 12.604096 -3.090580 -3.818901 4.958316 -19.014789 -8.084011 0.000006 0.000001 -0.000000 -2.604882 4.001883 20.791733 0.395120 -1.879005 23.748356 -0.000002 -0.000001 0.000002 -1.114367 -0.326930 22.214442 0.858067 -2.695675 35.308417 0.000001 -0.000000 0.000000 -0.268911 -2.585361 24.352585 1.505879 -3.430796 47.385773 -0.000001 0.000001 0.000002 -0.052958 -3.321982 29.340071 0.569472 -2.233470 28.604691 -0.000002 0.000003 0.000001 0.000000 -0.000002 0.000001 0.000000 -0.000000 0.000001 0.000000 -0.000002 0.000001 -0.000001 0.000002 -0.000000 -0.000001 0.000002 0.000001 -0.000001 0.000002 -0.000000 -0.000001 0.000002 0.000001 0.000000 0.000000 -0.000000 0.000000 0.000000 -0.000000 0.000000 0.000000 -0.000000 0.000000 0.000000 -0.000000 0.000000 0.000000 -0.000000 0.000000 0.000000 -0.000000 0.000000 0.000000 -0.000000 0.000000 0.000000 0.000000 -0.000000 0.000000 -0.000000 
1.433969 93.913040 5.743359 1.781324 2.094900 0.255427 0.000000 -0.000000 -0.000000 -36.900992 7.230985 7.509974 55.810555 -3.882920 -0.393794 7.862211 0.580363 -3.553518 0.000001 -0.000000 0.000001 0.000001 0.000000 0.000001 -15.649785 -7.269201 0.460017 25.603797 2.241741 -4.329747 -12.501754 0.479764 1.282786 0.000000 -0.000000 -0.000000 -0.000000 0.000000 -0.000000 6.390023 -0.513321 -0.279468 2.528582 -1.613456 1.064342 2.545423 -1.578220 1.147881 -0.053156 0.369688 -0.049385 -0.053154 0.369688 -0.049386 -0.000001 0.000000 0.000000 -0.053155 0.369686 -0.049385 -0.053158 0.369690 -0.049387 0.000001 -0.000000 0.000000 -0.000001 0.000000 0.000000 0.372030 -9.555641 -15.041972 8.216922 -22.540965 -57.446713 0.000001 -11.975297 0.000026 3.731477 3.720155 -10.301925 4.891370 3.235528 10.703792 6.454770 8.503276 6.197281 0.000001 -0.000001 -0.000004 -2.093283 -3.936378 -17.208609 0.189388 1.479055 -14.593609 0.000001 -0.000001 0.000004 0.414366 4.427915 -25.861101 0.117918 1.170727 -11.502992 -0.000002 0.000001 -0.000001 1.539064 6.674516 -26.628324 0.309132 1.879607 -18.677434 0.000000 -0.000004 0.000000 2.853486 8.358707 -33.022875 0.260313 1.728579 -17.127002 -0.000004 -0.000001 -0.000002 0.000001 -0.000000 -0.000000 0.000001 -0.000000 -0.000000 -0.000000 0.000000 -0.000000 -0.000002 -0.000001 -0.000000 -0.000002 -0.000002 -0.000001 -0.000002 -0.000001 -0.000000 -0.000003 -0.000001 -0.000001 0.321547 4.755069 15.877628 5.691784 26.887837 47.980716 -0.000002 30.206600 -0.000002 0.161390 0.516861 4.276225 12.348112 -2.339932 -3.584491 4.747134 -18.240232 -7.943260 0.000002 -0.000003 -0.000003 -2.640439 4.449052 20.018087 0.367978 -1.816111 22.906660 -0.000001 0.000000 -0.000000 -1.172900 -0.021091 21.413900 0.819469 -2.640388 34.478962 0.000003 -0.000002 0.000000 -0.236783 -2.596227 23.523564 1.456700 -3.384974 46.558200 0.000001 0.000001 -0.000001 0.223283 -3.787762 28.484151 0.537725 -2.174281 27.779085 -0.000001 -0.000000 -0.000002 -0.000003 -0.000001 0.000001 -0.000003 0.000000 -0.000001 -0.000003 -0.000001 0.000000 0.000002 0.000001 -0.000002 0.000002 0.000001 -0.000002 0.000002 0.000001 -0.000002 0.000002 0.000001 -0.000002 -0.000001 0.000000 -0.000000 -0.000001 0.000000 -0.000000 -0.000001 0.000000 -0.000000 -0.000001 0.000000 -0.000000 -0.000001 0.000000 -0.000000 -0.000001 0.000000 -0.000000 -0.000001 0.000000 -0.000000 0.000000 0.000000 -0.000000 0.000000 -0.000000 -0.000000 
2.561624 93.747063 6.907037 1.665026 2.264872 0.421325 -0.000000 -0.000000 0.000000 -36.209015 6.195044 8.963888 54.508919 -2.531989 -0.208707 6.358848 1.176038 -4.987878 0.000003 -0.000001 -0.000000 0.000000 0.000001 -0.000000 -15.135279 -7.083254 -0.786493 26.545066 2.000680 -4.177912 -13.832500 1.021793 2.257744 -0.000000 0.000000 0.000000 -0.000000 -0.000000 0.000000 6.609309 0.219414 -0.350878 2.561885 -0.802064 0.887917 2.621669 -0.776054 0.944273 -0.016428 0.315692 -0.050034 -0.016436 0.315692 -0.050035 0.000000 0.000000 0.000000 -0.016353 0.315690 -0.050033 -0.016427 0.315693 -0.050034 0.000000 -0.000000 0.000000 0.000000 0.000000 0.000000 0.371285 -9.985389 -15.641499 7.405629 -20.584766 -57.407166 -0.000004 -12.913634 -0.000016 4.214052 3.996358 -10.057984 4.508203 2.883749 10.550100 6.434232 8.643679 6.022187 -0.000002 -0.000002 -0.000003 -1.948683 -3.694180 -16.699976 0.176225 1.427539 -14.074305 -0.000001 -0.000004 0.000001 0.393850 4.367400 -25.050955 0.109702 1.129618 -11.093767 -0.000001 0.000001 -0.000000 1.442365 6.540913 -25.786638 0.287705 1.815027 -18.012635 -0.000004 -0.000002 -0.000000 2.655557 8.164952 -31.946840 0.242247 1.668838 -16.517474 0.000000 -0.000002 0.000002 -0.000001 0.000000 0.000001 -0.000001 0.000000 0.000001 -0.000002 0.000000 0.000001 -0.000000 -0.000001 -0.000001 0.000000 -0.000001 -0.000001 -0.000000 -0.000001 -0.000001 -0.000002 -0.000001 -0.000001 0.086860 5.408576 15.971889 7.876284 25.924900 46.850071 0.000002 35.801120 0.000000 1.774335 0.205082 2.579176 12.069514 -1.522691 -3.323967 4.515094 -17.396359 -7.788259 0.000002 -0.000001 -0.000002 -2.666687 4.938891 19.174984 0.339472 -1.747108 21.989241 -0.000001 -0.000004 -0.000003 -1.228168 0.314530 20.541881 0.778309 -2.579480 33.574966 0.000002 -0.000001 -0.000001 -0.203303 -2.609184 22.619782 1.403835 -3.334186 45.656263 -0.000000 -0.000003 0.000001 0.507728 -4.304792 27.552420 0.504100 -2.109242 26.879226 -0.000001 0.000003 0.000001 -0.000000 -0.000001 0.000000 0.000000 -0.000001 -0.000001 -0.000000 -0.000001 0.000000 -0.000002 0.000001 0.000000 -0.000002 0.000001 0.000000 -0.000002 0.000001 0.000000 -0.000002 0.000001 0.000000 -0.000001 0.000000 -0.000000 -0.000001 0.000000 -0.000000 -0.000001 0.000000 -0.000000 -0.000001 0.000000 -0.000000 -0.000001 0.000000 -0.000000 -0.000001 0.000000 -0.000000 -0.000001 0.000000 -0.000000 -0.000001 0.000000 0.000000 -0.000000 -0.000000 0.000000 
